<svg xmlns="http://www.w3.org/2000/svg" viewBox="0 0 258 258"><defs><style>.cls-1{fill:none;}.cls-2{fill:#ed6c47;}.cls-3{fill:#d35230;}.cls-4{fill:#ff8f6b;}.cls-5{opacity:0.16;}.cls-6{opacity:0.12;}.cls-7{opacity:0.36;}.cls-8{fill:#c43e1c;}.cls-9{fill:#fff;}</style></defs><g id="Canvas"><rect class="cls-1" width="258" height="258"/></g><g id="Icons"><path class="cls-2" d="M128,36a93,93,0,0,0-92,92h92Z"/><path class="cls-3" d="M129,222a93,93,0,0,0,93-93c0-.33,0-.67,0-1H36c0,.33,0,.67,0,1A93,93,0,0,0,129,222Z"/><path class="cls-4" d="M222,128a93,93,0,0,0-93-92h-1v92Z"/><path class="cls-5" d="M129.71,71.9H55.59a93,93,0,0,0,11,126h63.17a8,8,0,0,0,8-8V79.9A8,8,0,0,0,129.71,71.9Z"/><path class="cls-6" d="M135.71,65.9h-75a93,93,0,0,0-.19,126h75.21a8,8,0,0,0,8-8V73.9A8,8,0,0,0,135.71,65.9Z"/><path class="cls-5" d="M129.71,71.9H55.59a93,93,0,0,0-.15,114h74.27a8,8,0,0,0,8-8v-98A8,8,0,0,0,129.71,71.9Z"/><path class="cls-7" d="M123.71,71.9H55.59a93,93,0,0,0-.15,114h68.27a8,8,0,0,0,8-8v-98A8,8,0,0,0,123.71,71.9Z"/><path class="cls-8" d="M123.71,71.9h-80a8,8,0,0,0-8,8v92a8,8,0,0,0,8,8h80a8,8,0,0,0,8-8v-92A8,8,0,0,0,123.71,71.9Z"/><path class="cls-9" d="M77.7,132.88v15.44H67.61V103.51H83.42q16.93,0,16.94,14.28a13.7,13.7,0,0,1-4.86,10.92q-4.86,4.17-13,4.17Zm0-21.62v14h4q8.07,0,8.06-7.06t-8.06-6.91Z"/></g></svg>