<svg xmlns="http://www.w3.org/2000/svg" viewBox="0 0 258 258"><defs><style>.cls-1{fill:none;}.cls-2{fill:#1b5b38;}.cls-3{fill:#197b42;}.cls-4{fill:#28a267;}.cls-5{fill:#3bc381;}.cls-6{opacity:0.16;}.cls-7{opacity:0.12;}.cls-8{opacity:0.36;}.cls-9{fill:#fff;}</style></defs><g id="Canvas"><rect class="cls-1" width="258" height="258"/></g><g id="Icons"><rect class="cls-2" x="96" y="126" width="63" height="42"/><rect class="cls-3" x="159" y="126" width="63" height="42"/><path class="cls-4" d="M159,36H104a8,8,0,0,0-8,8V78h63Z"/><path class="cls-5" d="M214,36H159V78h63V44A8,8,0,0,0,214,36Z"/><rect class="cls-3" x="96" y="78" width="63" height="48"/><rect class="cls-4" x="159" y="78" width="63" height="48"/><path class="cls-2" d="M96,214a8,8,0,0,0,8,8H214a8,8,0,0,0,8-8V168H96Z"/><path class="cls-6" d="M130,72H96V198h34a8,8,0,0,0,8-8V80A8,8,0,0,0,130,72Z"/><path class="cls-7" d="M136,66H96V192h40a8,8,0,0,0,8-8V74A8,8,0,0,0,136,66Z"/><path class="cls-6" d="M130,72H96V186h34a8,8,0,0,0,8-8V80A8,8,0,0,0,130,72Z"/><path class="cls-8" d="M124,72H96V186h28a8,8,0,0,0,8-8V80A8,8,0,0,0,124,72Z"/><path class="cls-3" d="M124,72H44a8,8,0,0,0-8,8v92a8,8,0,0,0,8,8h80a8,8,0,0,0,8-8V80A8,8,0,0,0,124,72Zm-10.51,78h-17L84,137.49,71.49,150h-17l21-21-21-21h17L84,120.51,96.51,108h17l-21,21Z"/><polygon class="cls-9" points="96.52 108 84 120.52 71.48 108 54.52 108 75.52 129 54.52 150 71.48 150 84 137.49 96.52 150 113.48 150 92.48 129 113.48 108 96.52 108"/></g></svg>