<svg xmlns="http://www.w3.org/2000/svg" viewBox="0 0 258 258"><defs><style>.cls-1{fill:none;}.cls-2{fill:#185abd;}.cls-3{fill:#41a5ee;}.cls-4{fill:#2b7cd3;}.cls-5{fill:#103f91;}.cls-6{opacity:0.16;}.cls-7{opacity:0.12;}.cls-8{opacity:0.36;}.cls-9{fill:#fff;}</style></defs><g id="Canvas"><rect class="cls-1" width="258" height="258"/></g><g id="Icons"><polygon class="cls-2" points="158.71 125.9 95.71 125.9 95.71 167.9 158.71 167.9 221.71 167.9 221.71 125.9 158.71 125.9"/><path class="cls-3" d="M213.71,35.9h-110a8,8,0,0,0-8,8v34h126v-34A8,8,0,0,0,213.71,35.9Z"/><polygon class="cls-4" points="158.71 77.9 95.71 77.9 95.71 125.9 158.71 125.9 221.71 125.9 221.71 77.9 158.71 77.9"/><path class="cls-5" d="M95.71,213.9a8,8,0,0,0,8,8h110a8,8,0,0,0,8-8v-46h-126Z"/><path class="cls-6" d="M129.71,71.9h-34v126h34a8,8,0,0,0,8-8V79.9A8,8,0,0,0,129.71,71.9Z"/><path class="cls-7" d="M135.71,65.9h-40v126h40a8,8,0,0,0,8-8V73.9A8,8,0,0,0,135.71,65.9Z"/><path class="cls-6" d="M129.71,71.9h-34v114h34a8,8,0,0,0,8-8v-98A8,8,0,0,0,129.71,71.9Z"/><path class="cls-8" d="M123.71,71.9h-28v114h28a8,8,0,0,0,8-8v-98A8,8,0,0,0,123.71,71.9Z"/><path class="cls-2" d="M123.71,71.9h-80a8,8,0,0,0-8,8v92a8,8,0,0,0,8,8h80a8,8,0,0,0,8-8v-92A8,8,0,0,0,123.71,71.9Z"/><path class="cls-9" d="M115.75,103.49,103.91,148.3H92.72l-7.44-28.75a24.16,24.16,0,0,1-.72-5h-.12a30.09,30.09,0,0,1-.82,5L76,148.3H64.34L52.56,103.49h11l6.32,29.84a35.11,35.11,0,0,1,.59,5.13h.19a24.49,24.49,0,0,1,.9-5.25l8.13-29.72H90.53l7.35,30.09a37.53,37.53,0,0,1,.71,4.81h.13a31.33,31.33,0,0,1,.66-5l6.18-29.9Z"/></g></svg>